<?xml version="1.0" encoding="utf-8" standalone="no"?>
<!DOCTYPE svg PUBLIC "-//W3C//DTD SVG 1.1//EN"
  "http://www.w3.org/Graphics/SVG/1.1/DTD/svg11.dtd">
<!-- Created with matplotlib (https://matplotlib.org/) -->
<svg height="288pt" version="1.1" viewBox="0 0 432 288" width="432pt" xmlns="http://www.w3.org/2000/svg" xmlns:xlink="http://www.w3.org/1999/xlink">
 <defs>
  <style type="text/css">
*{stroke-linecap:butt;stroke-linejoin:round;}
  </style>
 </defs>
 <g id="figure_1">
  <g id="patch_1">
   <path d="M 0 288 
L 432 288 
L 432 0 
L 0 0 
z
" style="fill:#ffffff;"/>
  </g>
  <g id="axes_1">
   <g id="patch_2">
    <path d="M 54 252 
L 388.8 252 
L 388.8 34.56 
L 54 34.56 
z
" style="fill:#ffffff;"/>
   </g>
   <g id="matplotlib.axis_1">
    <g id="xtick_1">
     <g id="line2d_1">
      <defs>
       <path d="M 0 0 
L 0 3.5 
" id="m07b269cc2a" style="stroke:#000000;stroke-width:0.8;"/>
      </defs>
      <g>
       <use style="stroke:#000000;stroke-width:0.8;" x="81.9" xlink:href="#m07b269cc2a" y="252"/>
      </g>
     </g>
     <g id="text_1">
      <!-- 5 -->
      <defs>
       <path d="M 10.796875 72.90625 
L 49.515625 72.90625 
L 49.515625 64.59375 
L 19.828125 64.59375 
L 19.828125 46.734375 
Q 21.96875 47.46875 24.109375 47.828125 
Q 26.265625 48.1875 28.421875 48.1875 
Q 40.625 48.1875 47.75 41.5 
Q 54.890625 34.8125 54.890625 23.390625 
Q 54.890625 11.625 47.5625 5.09375 
Q 40.234375 -1.421875 26.90625 -1.421875 
Q 22.3125 -1.421875 17.546875 -0.640625 
Q 12.796875 0.140625 7.71875 1.703125 
L 7.71875 11.625 
Q 12.109375 9.234375 16.796875 8.0625 
Q 21.484375 6.890625 26.703125 6.890625 
Q 35.15625 6.890625 40.078125 11.328125 
Q 45.015625 15.765625 45.015625 23.390625 
Q 45.015625 31 40.078125 35.4375 
Q 35.15625 39.890625 26.703125 39.890625 
Q 22.75 39.890625 18.8125 39.015625 
Q 14.890625 38.140625 10.796875 36.28125 
z
" id="DejaVuSans-53"/>
      </defs>
      <g transform="translate(78.71875 266.598437)scale(0.1 -0.1)">
       <use xlink:href="#DejaVuSans-53"/>
      </g>
     </g>
    </g>
    <g id="xtick_2">
     <g id="line2d_2">
      <g>
       <use style="stroke:#000000;stroke-width:0.8;" x="145.309091" xlink:href="#m07b269cc2a" y="252"/>
      </g>
     </g>
     <g id="text_2">
      <!-- 10 -->
      <defs>
       <path d="M 12.40625 8.296875 
L 28.515625 8.296875 
L 28.515625 63.921875 
L 10.984375 60.40625 
L 10.984375 69.390625 
L 28.421875 72.90625 
L 38.28125 72.90625 
L 38.28125 8.296875 
L 54.390625 8.296875 
L 54.390625 0 
L 12.40625 0 
z
" id="DejaVuSans-49"/>
       <path d="M 31.78125 66.40625 
Q 24.171875 66.40625 20.328125 58.90625 
Q 16.5 51.421875 16.5 36.375 
Q 16.5 21.390625 20.328125 13.890625 
Q 24.171875 6.390625 31.78125 6.390625 
Q 39.453125 6.390625 43.28125 13.890625 
Q 47.125 21.390625 47.125 36.375 
Q 47.125 51.421875 43.28125 58.90625 
Q 39.453125 66.40625 31.78125 66.40625 
z
M 31.78125 74.21875 
Q 44.046875 74.21875 50.515625 64.515625 
Q 56.984375 54.828125 56.984375 36.375 
Q 56.984375 17.96875 50.515625 8.265625 
Q 44.046875 -1.421875 31.78125 -1.421875 
Q 19.53125 -1.421875 13.0625 8.265625 
Q 6.59375 17.96875 6.59375 36.375 
Q 6.59375 54.828125 13.0625 64.515625 
Q 19.53125 74.21875 31.78125 74.21875 
z
" id="DejaVuSans-48"/>
      </defs>
      <g transform="translate(138.946591 266.598437)scale(0.1 -0.1)">
       <use xlink:href="#DejaVuSans-49"/>
       <use x="63.623047" xlink:href="#DejaVuSans-48"/>
      </g>
     </g>
    </g>
    <g id="xtick_3">
     <g id="line2d_3">
      <g>
       <use style="stroke:#000000;stroke-width:0.8;" x="208.718182" xlink:href="#m07b269cc2a" y="252"/>
      </g>
     </g>
     <g id="text_3">
      <!-- 15 -->
      <g transform="translate(202.355682 266.598437)scale(0.1 -0.1)">
       <use xlink:href="#DejaVuSans-49"/>
       <use x="63.623047" xlink:href="#DejaVuSans-53"/>
      </g>
     </g>
    </g>
    <g id="xtick_4">
     <g id="line2d_4">
      <g>
       <use style="stroke:#000000;stroke-width:0.8;" x="272.127273" xlink:href="#m07b269cc2a" y="252"/>
      </g>
     </g>
     <g id="text_4">
      <!-- 20 -->
      <defs>
       <path d="M 19.1875 8.296875 
L 53.609375 8.296875 
L 53.609375 0 
L 7.328125 0 
L 7.328125 8.296875 
Q 12.9375 14.109375 22.625 23.890625 
Q 32.328125 33.6875 34.8125 36.53125 
Q 39.546875 41.84375 41.421875 45.53125 
Q 43.3125 49.21875 43.3125 52.78125 
Q 43.3125 58.59375 39.234375 62.25 
Q 35.15625 65.921875 28.609375 65.921875 
Q 23.96875 65.921875 18.8125 64.3125 
Q 13.671875 62.703125 7.8125 59.421875 
L 7.8125 69.390625 
Q 13.765625 71.78125 18.9375 73 
Q 24.125 74.21875 28.421875 74.21875 
Q 39.75 74.21875 46.484375 68.546875 
Q 53.21875 62.890625 53.21875 53.421875 
Q 53.21875 48.921875 51.53125 44.890625 
Q 49.859375 40.875 45.40625 35.40625 
Q 44.1875 33.984375 37.640625 27.21875 
Q 31.109375 20.453125 19.1875 8.296875 
z
" id="DejaVuSans-50"/>
      </defs>
      <g transform="translate(265.764773 266.598437)scale(0.1 -0.1)">
       <use xlink:href="#DejaVuSans-50"/>
       <use x="63.623047" xlink:href="#DejaVuSans-48"/>
      </g>
     </g>
    </g>
    <g id="xtick_5">
     <g id="line2d_5">
      <g>
       <use style="stroke:#000000;stroke-width:0.8;" x="335.536364" xlink:href="#m07b269cc2a" y="252"/>
      </g>
     </g>
     <g id="text_5">
      <!-- 25 -->
      <g transform="translate(329.173864 266.598437)scale(0.1 -0.1)">
       <use xlink:href="#DejaVuSans-50"/>
       <use x="63.623047" xlink:href="#DejaVuSans-53"/>
      </g>
     </g>
    </g>
    <g id="text_6">
     <!-- time (s) -->
     <defs>
      <path d="M 18.3125 70.21875 
L 18.3125 54.6875 
L 36.8125 54.6875 
L 36.8125 47.703125 
L 18.3125 47.703125 
L 18.3125 18.015625 
Q 18.3125 11.328125 20.140625 9.421875 
Q 21.96875 7.515625 27.59375 7.515625 
L 36.8125 7.515625 
L 36.8125 0 
L 27.59375 0 
Q 17.1875 0 13.234375 3.875 
Q 9.28125 7.765625 9.28125 18.015625 
L 9.28125 47.703125 
L 2.6875 47.703125 
L 2.6875 54.6875 
L 9.28125 54.6875 
L 9.28125 70.21875 
z
" id="DejaVuSans-116"/>
      <path d="M 9.421875 54.6875 
L 18.40625 54.6875 
L 18.40625 0 
L 9.421875 0 
z
M 9.421875 75.984375 
L 18.40625 75.984375 
L 18.40625 64.59375 
L 9.421875 64.59375 
z
" id="DejaVuSans-105"/>
      <path d="M 52 44.1875 
Q 55.375 50.25 60.0625 53.125 
Q 64.75 56 71.09375 56 
Q 79.640625 56 84.28125 50.015625 
Q 88.921875 44.046875 88.921875 33.015625 
L 88.921875 0 
L 79.890625 0 
L 79.890625 32.71875 
Q 79.890625 40.578125 77.09375 44.375 
Q 74.3125 48.1875 68.609375 48.1875 
Q 61.625 48.1875 57.5625 43.546875 
Q 53.515625 38.921875 53.515625 30.90625 
L 53.515625 0 
L 44.484375 0 
L 44.484375 32.71875 
Q 44.484375 40.625 41.703125 44.40625 
Q 38.921875 48.1875 33.109375 48.1875 
Q 26.21875 48.1875 22.15625 43.53125 
Q 18.109375 38.875 18.109375 30.90625 
L 18.109375 0 
L 9.078125 0 
L 9.078125 54.6875 
L 18.109375 54.6875 
L 18.109375 46.1875 
Q 21.1875 51.21875 25.484375 53.609375 
Q 29.78125 56 35.6875 56 
Q 41.65625 56 45.828125 52.96875 
Q 50 49.953125 52 44.1875 
z
" id="DejaVuSans-109"/>
      <path d="M 56.203125 29.59375 
L 56.203125 25.203125 
L 14.890625 25.203125 
Q 15.484375 15.921875 20.484375 11.0625 
Q 25.484375 6.203125 34.421875 6.203125 
Q 39.59375 6.203125 44.453125 7.46875 
Q 49.3125 8.734375 54.109375 11.28125 
L 54.109375 2.78125 
Q 49.265625 0.734375 44.1875 -0.34375 
Q 39.109375 -1.421875 33.890625 -1.421875 
Q 20.796875 -1.421875 13.15625 6.1875 
Q 5.515625 13.8125 5.515625 26.8125 
Q 5.515625 40.234375 12.765625 48.109375 
Q 20.015625 56 32.328125 56 
Q 43.359375 56 49.78125 48.890625 
Q 56.203125 41.796875 56.203125 29.59375 
z
M 47.21875 32.234375 
Q 47.125 39.59375 43.09375 43.984375 
Q 39.0625 48.390625 32.421875 48.390625 
Q 24.90625 48.390625 20.390625 44.140625 
Q 15.875 39.890625 15.1875 32.171875 
z
" id="DejaVuSans-101"/>
      <path id="DejaVuSans-32"/>
      <path d="M 31 75.875 
Q 24.46875 64.65625 21.28125 53.65625 
Q 18.109375 42.671875 18.109375 31.390625 
Q 18.109375 20.125 21.3125 9.0625 
Q 24.515625 -2 31 -13.1875 
L 23.1875 -13.1875 
Q 15.875 -1.703125 12.234375 9.375 
Q 8.59375 20.453125 8.59375 31.390625 
Q 8.59375 42.28125 12.203125 53.3125 
Q 15.828125 64.359375 23.1875 75.875 
z
" id="DejaVuSans-40"/>
      <path d="M 44.28125 53.078125 
L 44.28125 44.578125 
Q 40.484375 46.53125 36.375 47.5 
Q 32.28125 48.484375 27.875 48.484375 
Q 21.1875 48.484375 17.84375 46.4375 
Q 14.5 44.390625 14.5 40.28125 
Q 14.5 37.15625 16.890625 35.375 
Q 19.28125 33.59375 26.515625 31.984375 
L 29.59375 31.296875 
Q 39.15625 29.25 43.1875 25.515625 
Q 47.21875 21.78125 47.21875 15.09375 
Q 47.21875 7.46875 41.1875 3.015625 
Q 35.15625 -1.421875 24.609375 -1.421875 
Q 20.21875 -1.421875 15.453125 -0.5625 
Q 10.6875 0.296875 5.421875 2 
L 5.421875 11.28125 
Q 10.40625 8.6875 15.234375 7.390625 
Q 20.0625 6.109375 24.8125 6.109375 
Q 31.15625 6.109375 34.5625 8.28125 
Q 37.984375 10.453125 37.984375 14.40625 
Q 37.984375 18.0625 35.515625 20.015625 
Q 33.0625 21.96875 24.703125 23.78125 
L 21.578125 24.515625 
Q 13.234375 26.265625 9.515625 29.90625 
Q 5.8125 33.546875 5.8125 39.890625 
Q 5.8125 47.609375 11.28125 51.796875 
Q 16.75 56 26.8125 56 
Q 31.78125 56 36.171875 55.265625 
Q 40.578125 54.546875 44.28125 53.078125 
z
" id="DejaVuSans-115"/>
      <path d="M 8.015625 75.875 
L 15.828125 75.875 
Q 23.140625 64.359375 26.78125 53.3125 
Q 30.421875 42.28125 30.421875 31.390625 
Q 30.421875 20.453125 26.78125 9.375 
Q 23.140625 -1.703125 15.828125 -13.1875 
L 8.015625 -13.1875 
Q 14.5 -2 17.703125 9.0625 
Q 20.90625 20.125 20.90625 31.390625 
Q 20.90625 42.671875 17.703125 53.65625 
Q 14.5 64.65625 8.015625 75.875 
z
" id="DejaVuSans-41"/>
     </defs>
     <g transform="translate(202.008594 280.276563)scale(0.1 -0.1)">
      <use xlink:href="#DejaVuSans-116"/>
      <use x="39.208984" xlink:href="#DejaVuSans-105"/>
      <use x="66.992188" xlink:href="#DejaVuSans-109"/>
      <use x="164.404297" xlink:href="#DejaVuSans-101"/>
      <use x="225.927734" xlink:href="#DejaVuSans-32"/>
      <use x="257.714844" xlink:href="#DejaVuSans-40"/>
      <use x="296.728516" xlink:href="#DejaVuSans-115"/>
      <use x="348.828125" xlink:href="#DejaVuSans-41"/>
     </g>
    </g>
   </g>
   <g id="matplotlib.axis_2">
    <g id="ytick_1">
     <g id="line2d_6">
      <defs>
       <path d="M 0 0 
L -3.5 0 
" id="m43ee709f3c" style="stroke:#000000;stroke-width:0.8;"/>
      </defs>
      <g>
       <use style="stroke:#000000;stroke-width:0.8;" x="54" xlink:href="#m43ee709f3c" y="241.05111"/>
      </g>
     </g>
     <g id="text_7">
      <!-- −1.4 -->
      <defs>
       <path d="M 10.59375 35.5 
L 73.1875 35.5 
L 73.1875 27.203125 
L 10.59375 27.203125 
z
" id="DejaVuSans-8722"/>
       <path d="M 10.6875 12.40625 
L 21 12.40625 
L 21 0 
L 10.6875 0 
z
" id="DejaVuSans-46"/>
       <path d="M 37.796875 64.3125 
L 12.890625 25.390625 
L 37.796875 25.390625 
z
M 35.203125 72.90625 
L 47.609375 72.90625 
L 47.609375 25.390625 
L 58.015625 25.390625 
L 58.015625 17.1875 
L 47.609375 17.1875 
L 47.609375 0 
L 37.796875 0 
L 37.796875 17.1875 
L 4.890625 17.1875 
L 4.890625 26.703125 
z
" id="DejaVuSans-52"/>
      </defs>
      <g transform="translate(22.717187 244.850328)scale(0.1 -0.1)">
       <use xlink:href="#DejaVuSans-8722"/>
       <use x="83.789062" xlink:href="#DejaVuSans-49"/>
       <use x="147.412109" xlink:href="#DejaVuSans-46"/>
       <use x="179.199219" xlink:href="#DejaVuSans-52"/>
      </g>
     </g>
    </g>
    <g id="ytick_2">
     <g id="line2d_7">
      <g>
       <use style="stroke:#000000;stroke-width:0.8;" x="54" xlink:href="#m43ee709f3c" y="214.308839"/>
      </g>
     </g>
     <g id="text_8">
      <!-- −1.2 -->
      <g transform="translate(22.717187 218.108058)scale(0.1 -0.1)">
       <use xlink:href="#DejaVuSans-8722"/>
       <use x="83.789062" xlink:href="#DejaVuSans-49"/>
       <use x="147.412109" xlink:href="#DejaVuSans-46"/>
       <use x="179.199219" xlink:href="#DejaVuSans-50"/>
      </g>
     </g>
    </g>
    <g id="ytick_3">
     <g id="line2d_8">
      <g>
       <use style="stroke:#000000;stroke-width:0.8;" x="54" xlink:href="#m43ee709f3c" y="187.566568"/>
      </g>
     </g>
     <g id="text_9">
      <!-- −1.0 -->
      <g transform="translate(22.717187 191.365787)scale(0.1 -0.1)">
       <use xlink:href="#DejaVuSans-8722"/>
       <use x="83.789062" xlink:href="#DejaVuSans-49"/>
       <use x="147.412109" xlink:href="#DejaVuSans-46"/>
       <use x="179.199219" xlink:href="#DejaVuSans-48"/>
      </g>
     </g>
    </g>
    <g id="ytick_4">
     <g id="line2d_9">
      <g>
       <use style="stroke:#000000;stroke-width:0.8;" x="54" xlink:href="#m43ee709f3c" y="160.824297"/>
      </g>
     </g>
     <g id="text_10">
      <!-- −0.8 -->
      <defs>
       <path d="M 31.78125 34.625 
Q 24.75 34.625 20.71875 30.859375 
Q 16.703125 27.09375 16.703125 20.515625 
Q 16.703125 13.921875 20.71875 10.15625 
Q 24.75 6.390625 31.78125 6.390625 
Q 38.8125 6.390625 42.859375 10.171875 
Q 46.921875 13.96875 46.921875 20.515625 
Q 46.921875 27.09375 42.890625 30.859375 
Q 38.875 34.625 31.78125 34.625 
z
M 21.921875 38.8125 
Q 15.578125 40.375 12.03125 44.71875 
Q 8.5 49.078125 8.5 55.328125 
Q 8.5 64.0625 14.71875 69.140625 
Q 20.953125 74.21875 31.78125 74.21875 
Q 42.671875 74.21875 48.875 69.140625 
Q 55.078125 64.0625 55.078125 55.328125 
Q 55.078125 49.078125 51.53125 44.71875 
Q 48 40.375 41.703125 38.8125 
Q 48.828125 37.15625 52.796875 32.3125 
Q 56.78125 27.484375 56.78125 20.515625 
Q 56.78125 9.90625 50.3125 4.234375 
Q 43.84375 -1.421875 31.78125 -1.421875 
Q 19.734375 -1.421875 13.25 4.234375 
Q 6.78125 9.90625 6.78125 20.515625 
Q 6.78125 27.484375 10.78125 32.3125 
Q 14.796875 37.15625 21.921875 38.8125 
z
M 18.3125 54.390625 
Q 18.3125 48.734375 21.84375 45.5625 
Q 25.390625 42.390625 31.78125 42.390625 
Q 38.140625 42.390625 41.71875 45.5625 
Q 45.3125 48.734375 45.3125 54.390625 
Q 45.3125 60.0625 41.71875 63.234375 
Q 38.140625 66.40625 31.78125 66.40625 
Q 25.390625 66.40625 21.84375 63.234375 
Q 18.3125 60.0625 18.3125 54.390625 
z
" id="DejaVuSans-56"/>
      </defs>
      <g transform="translate(22.717187 164.623516)scale(0.1 -0.1)">
       <use xlink:href="#DejaVuSans-8722"/>
       <use x="83.789062" xlink:href="#DejaVuSans-48"/>
       <use x="147.412109" xlink:href="#DejaVuSans-46"/>
       <use x="179.199219" xlink:href="#DejaVuSans-56"/>
      </g>
     </g>
    </g>
    <g id="ytick_5">
     <g id="line2d_10">
      <g>
       <use style="stroke:#000000;stroke-width:0.8;" x="54" xlink:href="#m43ee709f3c" y="134.082026"/>
      </g>
     </g>
     <g id="text_11">
      <!-- −0.6 -->
      <defs>
       <path d="M 33.015625 40.375 
Q 26.375 40.375 22.484375 35.828125 
Q 18.609375 31.296875 18.609375 23.390625 
Q 18.609375 15.53125 22.484375 10.953125 
Q 26.375 6.390625 33.015625 6.390625 
Q 39.65625 6.390625 43.53125 10.953125 
Q 47.40625 15.53125 47.40625 23.390625 
Q 47.40625 31.296875 43.53125 35.828125 
Q 39.65625 40.375 33.015625 40.375 
z
M 52.59375 71.296875 
L 52.59375 62.3125 
Q 48.875 64.0625 45.09375 64.984375 
Q 41.3125 65.921875 37.59375 65.921875 
Q 27.828125 65.921875 22.671875 59.328125 
Q 17.53125 52.734375 16.796875 39.40625 
Q 19.671875 43.65625 24.015625 45.921875 
Q 28.375 48.1875 33.59375 48.1875 
Q 44.578125 48.1875 50.953125 41.515625 
Q 57.328125 34.859375 57.328125 23.390625 
Q 57.328125 12.15625 50.6875 5.359375 
Q 44.046875 -1.421875 33.015625 -1.421875 
Q 20.359375 -1.421875 13.671875 8.265625 
Q 6.984375 17.96875 6.984375 36.375 
Q 6.984375 53.65625 15.1875 63.9375 
Q 23.390625 74.21875 37.203125 74.21875 
Q 40.921875 74.21875 44.703125 73.484375 
Q 48.484375 72.75 52.59375 71.296875 
z
" id="DejaVuSans-54"/>
      </defs>
      <g transform="translate(22.717187 137.881245)scale(0.1 -0.1)">
       <use xlink:href="#DejaVuSans-8722"/>
       <use x="83.789062" xlink:href="#DejaVuSans-48"/>
       <use x="147.412109" xlink:href="#DejaVuSans-46"/>
       <use x="179.199219" xlink:href="#DejaVuSans-54"/>
      </g>
     </g>
    </g>
    <g id="ytick_6">
     <g id="line2d_11">
      <g>
       <use style="stroke:#000000;stroke-width:0.8;" x="54" xlink:href="#m43ee709f3c" y="107.339755"/>
      </g>
     </g>
     <g id="text_12">
      <!-- −0.4 -->
      <g transform="translate(22.717187 111.138974)scale(0.1 -0.1)">
       <use xlink:href="#DejaVuSans-8722"/>
       <use x="83.789062" xlink:href="#DejaVuSans-48"/>
       <use x="147.412109" xlink:href="#DejaVuSans-46"/>
       <use x="179.199219" xlink:href="#DejaVuSans-52"/>
      </g>
     </g>
    </g>
    <g id="ytick_7">
     <g id="line2d_12">
      <g>
       <use style="stroke:#000000;stroke-width:0.8;" x="54" xlink:href="#m43ee709f3c" y="80.597485"/>
      </g>
     </g>
     <g id="text_13">
      <!-- −0.2 -->
      <g transform="translate(22.717187 84.396703)scale(0.1 -0.1)">
       <use xlink:href="#DejaVuSans-8722"/>
       <use x="83.789062" xlink:href="#DejaVuSans-48"/>
       <use x="147.412109" xlink:href="#DejaVuSans-46"/>
       <use x="179.199219" xlink:href="#DejaVuSans-50"/>
      </g>
     </g>
    </g>
    <g id="ytick_8">
     <g id="line2d_13">
      <g>
       <use style="stroke:#000000;stroke-width:0.8;" x="54" xlink:href="#m43ee709f3c" y="53.855214"/>
      </g>
     </g>
     <g id="text_14">
      <!-- 0.0 -->
      <g transform="translate(31.096875 57.654433)scale(0.1 -0.1)">
       <use xlink:href="#DejaVuSans-48"/>
       <use x="63.623047" xlink:href="#DejaVuSans-46"/>
       <use x="95.410156" xlink:href="#DejaVuSans-48"/>
      </g>
     </g>
    </g>
    <g id="text_15">
     <!-- phase difference (rad) -->
     <defs>
      <path d="M 18.109375 8.203125 
L 18.109375 -20.796875 
L 9.078125 -20.796875 
L 9.078125 54.6875 
L 18.109375 54.6875 
L 18.109375 46.390625 
Q 20.953125 51.265625 25.265625 53.625 
Q 29.59375 56 35.59375 56 
Q 45.5625 56 51.78125 48.09375 
Q 58.015625 40.1875 58.015625 27.296875 
Q 58.015625 14.40625 51.78125 6.484375 
Q 45.5625 -1.421875 35.59375 -1.421875 
Q 29.59375 -1.421875 25.265625 0.953125 
Q 20.953125 3.328125 18.109375 8.203125 
z
M 48.6875 27.296875 
Q 48.6875 37.203125 44.609375 42.84375 
Q 40.53125 48.484375 33.40625 48.484375 
Q 26.265625 48.484375 22.1875 42.84375 
Q 18.109375 37.203125 18.109375 27.296875 
Q 18.109375 17.390625 22.1875 11.75 
Q 26.265625 6.109375 33.40625 6.109375 
Q 40.53125 6.109375 44.609375 11.75 
Q 48.6875 17.390625 48.6875 27.296875 
z
" id="DejaVuSans-112"/>
      <path d="M 54.890625 33.015625 
L 54.890625 0 
L 45.90625 0 
L 45.90625 32.71875 
Q 45.90625 40.484375 42.875 44.328125 
Q 39.84375 48.1875 33.796875 48.1875 
Q 26.515625 48.1875 22.3125 43.546875 
Q 18.109375 38.921875 18.109375 30.90625 
L 18.109375 0 
L 9.078125 0 
L 9.078125 75.984375 
L 18.109375 75.984375 
L 18.109375 46.1875 
Q 21.34375 51.125 25.703125 53.5625 
Q 30.078125 56 35.796875 56 
Q 45.21875 56 50.046875 50.171875 
Q 54.890625 44.34375 54.890625 33.015625 
z
" id="DejaVuSans-104"/>
      <path d="M 34.28125 27.484375 
Q 23.390625 27.484375 19.1875 25 
Q 14.984375 22.515625 14.984375 16.5 
Q 14.984375 11.71875 18.140625 8.90625 
Q 21.296875 6.109375 26.703125 6.109375 
Q 34.1875 6.109375 38.703125 11.40625 
Q 43.21875 16.703125 43.21875 25.484375 
L 43.21875 27.484375 
z
M 52.203125 31.203125 
L 52.203125 0 
L 43.21875 0 
L 43.21875 8.296875 
Q 40.140625 3.328125 35.546875 0.953125 
Q 30.953125 -1.421875 24.3125 -1.421875 
Q 15.921875 -1.421875 10.953125 3.296875 
Q 6 8.015625 6 15.921875 
Q 6 25.140625 12.171875 29.828125 
Q 18.359375 34.515625 30.609375 34.515625 
L 43.21875 34.515625 
L 43.21875 35.40625 
Q 43.21875 41.609375 39.140625 45 
Q 35.0625 48.390625 27.6875 48.390625 
Q 23 48.390625 18.546875 47.265625 
Q 14.109375 46.140625 10.015625 43.890625 
L 10.015625 52.203125 
Q 14.9375 54.109375 19.578125 55.046875 
Q 24.21875 56 28.609375 56 
Q 40.484375 56 46.34375 49.84375 
Q 52.203125 43.703125 52.203125 31.203125 
z
" id="DejaVuSans-97"/>
      <path d="M 45.40625 46.390625 
L 45.40625 75.984375 
L 54.390625 75.984375 
L 54.390625 0 
L 45.40625 0 
L 45.40625 8.203125 
Q 42.578125 3.328125 38.25 0.953125 
Q 33.9375 -1.421875 27.875 -1.421875 
Q 17.96875 -1.421875 11.734375 6.484375 
Q 5.515625 14.40625 5.515625 27.296875 
Q 5.515625 40.1875 11.734375 48.09375 
Q 17.96875 56 27.875 56 
Q 33.9375 56 38.25 53.625 
Q 42.578125 51.265625 45.40625 46.390625 
z
M 14.796875 27.296875 
Q 14.796875 17.390625 18.875 11.75 
Q 22.953125 6.109375 30.078125 6.109375 
Q 37.203125 6.109375 41.296875 11.75 
Q 45.40625 17.390625 45.40625 27.296875 
Q 45.40625 37.203125 41.296875 42.84375 
Q 37.203125 48.484375 30.078125 48.484375 
Q 22.953125 48.484375 18.875 42.84375 
Q 14.796875 37.203125 14.796875 27.296875 
z
" id="DejaVuSans-100"/>
      <path d="M 37.109375 75.984375 
L 37.109375 68.5 
L 28.515625 68.5 
Q 23.6875 68.5 21.796875 66.546875 
Q 19.921875 64.59375 19.921875 59.515625 
L 19.921875 54.6875 
L 34.71875 54.6875 
L 34.71875 47.703125 
L 19.921875 47.703125 
L 19.921875 0 
L 10.890625 0 
L 10.890625 47.703125 
L 2.296875 47.703125 
L 2.296875 54.6875 
L 10.890625 54.6875 
L 10.890625 58.5 
Q 10.890625 67.625 15.140625 71.796875 
Q 19.390625 75.984375 28.609375 75.984375 
z
" id="DejaVuSans-102"/>
      <path d="M 41.109375 46.296875 
Q 39.59375 47.171875 37.8125 47.578125 
Q 36.03125 48 33.890625 48 
Q 26.265625 48 22.1875 43.046875 
Q 18.109375 38.09375 18.109375 28.8125 
L 18.109375 0 
L 9.078125 0 
L 9.078125 54.6875 
L 18.109375 54.6875 
L 18.109375 46.1875 
Q 20.953125 51.171875 25.484375 53.578125 
Q 30.03125 56 36.53125 56 
Q 37.453125 56 38.578125 55.875 
Q 39.703125 55.765625 41.0625 55.515625 
z
" id="DejaVuSans-114"/>
      <path d="M 54.890625 33.015625 
L 54.890625 0 
L 45.90625 0 
L 45.90625 32.71875 
Q 45.90625 40.484375 42.875 44.328125 
Q 39.84375 48.1875 33.796875 48.1875 
Q 26.515625 48.1875 22.3125 43.546875 
Q 18.109375 38.921875 18.109375 30.90625 
L 18.109375 0 
L 9.078125 0 
L 9.078125 54.6875 
L 18.109375 54.6875 
L 18.109375 46.1875 
Q 21.34375 51.125 25.703125 53.5625 
Q 30.078125 56 35.796875 56 
Q 45.21875 56 50.046875 50.171875 
Q 54.890625 44.34375 54.890625 33.015625 
z
" id="DejaVuSans-110"/>
      <path d="M 48.78125 52.59375 
L 48.78125 44.1875 
Q 44.96875 46.296875 41.140625 47.34375 
Q 37.3125 48.390625 33.40625 48.390625 
Q 24.65625 48.390625 19.8125 42.84375 
Q 14.984375 37.3125 14.984375 27.296875 
Q 14.984375 17.28125 19.8125 11.734375 
Q 24.65625 6.203125 33.40625 6.203125 
Q 37.3125 6.203125 41.140625 7.25 
Q 44.96875 8.296875 48.78125 10.40625 
L 48.78125 2.09375 
Q 45.015625 0.34375 40.984375 -0.53125 
Q 36.96875 -1.421875 32.421875 -1.421875 
Q 20.0625 -1.421875 12.78125 6.34375 
Q 5.515625 14.109375 5.515625 27.296875 
Q 5.515625 40.671875 12.859375 48.328125 
Q 20.21875 56 33.015625 56 
Q 37.15625 56 41.109375 55.140625 
Q 45.0625 54.296875 48.78125 52.59375 
z
" id="DejaVuSans-99"/>
     </defs>
     <g transform="translate(16.6375 199.026875)rotate(-90)scale(0.1 -0.1)">
      <use xlink:href="#DejaVuSans-112"/>
      <use x="63.476562" xlink:href="#DejaVuSans-104"/>
      <use x="126.855469" xlink:href="#DejaVuSans-97"/>
      <use x="188.134766" xlink:href="#DejaVuSans-115"/>
      <use x="240.234375" xlink:href="#DejaVuSans-101"/>
      <use x="301.757812" xlink:href="#DejaVuSans-32"/>
      <use x="333.544922" xlink:href="#DejaVuSans-100"/>
      <use x="397.021484" xlink:href="#DejaVuSans-105"/>
      <use x="424.804688" xlink:href="#DejaVuSans-102"/>
      <use x="460.009766" xlink:href="#DejaVuSans-102"/>
      <use x="495.214844" xlink:href="#DejaVuSans-101"/>
      <use x="556.738281" xlink:href="#DejaVuSans-114"/>
      <use x="597.820312" xlink:href="#DejaVuSans-101"/>
      <use x="659.34375" xlink:href="#DejaVuSans-110"/>
      <use x="722.722656" xlink:href="#DejaVuSans-99"/>
      <use x="777.703125" xlink:href="#DejaVuSans-101"/>
      <use x="839.226562" xlink:href="#DejaVuSans-32"/>
      <use x="871.013672" xlink:href="#DejaVuSans-40"/>
      <use x="910.027344" xlink:href="#DejaVuSans-114"/>
      <use x="951.140625" xlink:href="#DejaVuSans-97"/>
      <use x="1012.419922" xlink:href="#DejaVuSans-100"/>
      <use x="1075.896484" xlink:href="#DejaVuSans-41"/>
     </g>
    </g>
   </g>
   <g id="line2d_14">
    <path clip-path="url(#p5b3a14be28)" d="M 69.218182 53.855214 
L 373.581818 53.855214 
" style="fill:none;stroke:#808080;stroke-dasharray:5.55,2.4;stroke-dashoffset:0;stroke-width:1.5;"/>
   </g>
   <g id="line2d_15">
    <path clip-path="url(#p5b3a14be28)" d="M 70.486364 74.257004 
L 70.993636 78.368727 
L 71.500909 85.95179 
L 72.008182 97.390725 
L 72.515455 114.943099 
L 74.037273 189.851588 
L 74.544545 193.672256 
L 75.051818 180.134695 
L 76.573636 113.742619 
L 77.588182 89.347616 
L 78.602727 73.059863 
L 79.617273 61.207808 
L 80.124545 56.507623 
L 80.631818 54.272693 
L 81.139091 54.923391 
L 81.646364 59.079655 
L 82.153636 67.868571 
L 82.660909 82.425324 
L 83.168182 105.216321 
L 84.69 194.211567 
L 85.197273 203.612217 
L 85.704545 198.080864 
L 86.719091 160.431514 
L 87.733636 124.885537 
L 88.748182 99.313673 
L 89.762727 84.870148 
L 90.27 80.553953 
L 90.777273 79.165429 
L 91.284545 80.562354 
L 91.791818 83.623047 
L 92.299091 90.55597 
L 92.806364 102.302226 
L 93.313636 122.38362 
L 94.835455 201.303184 
L 95.342727 206.266392 
L 95.85 193.864187 
L 97.371818 129.944307 
L 97.879091 115.485002 
L 98.893636 95.910431 
L 100.415455 71.355598 
L 100.922727 66.26235 
L 101.43 64.310085 
L 101.937273 64.97355 
L 102.444545 69.769212 
L 102.951818 80.211285 
L 103.459091 98.239113 
L 103.966364 125.624984 
L 104.980909 196.466726 
L 105.488182 215.513764 
L 105.995455 212.407796 
L 106.502727 194.390497 
L 107.517273 134.263227 
L 108.531818 97.019325 
L 109.546364 71.880133 
L 110.053636 62.304857 
L 110.560909 56.707425 
L 111.068182 55.079135 
L 111.575455 57.033303 
L 112.082727 62.698633 
L 112.59 70.874065 
L 113.097273 82.009965 
L 113.604545 96.370263 
L 115.126364 154.77354 
L 115.633636 155.678499 
L 116.140909 138.672728 
L 117.155455 96.904853 
L 117.662727 83.286518 
L 118.677273 66.717263 
L 119.184545 60.160353 
L 119.691818 55.165923 
L 120.199091 51.293351 
L 120.706364 49.776292 
L 121.213636 50.273877 
L 121.720909 53.53346 
L 122.228182 59.62427 
L 122.735455 68.425802 
L 123.242727 80.181142 
L 123.75 95.367341 
L 124.257273 115.807955 
L 125.779091 194.98194 
L 126.286364 193.20013 
L 126.793636 165.900729 
L 127.300909 132.179863 
L 127.808182 109.260403 
L 128.822727 81.629111 
L 129.837273 58.741347 
L 130.344545 51.553193 
L 130.851818 47.980293 
L 131.359091 48.090933 
L 131.866364 50.578003 
L 132.373636 56.666007 
L 132.880909 64.915223 
L 133.895455 86.734679 
L 134.91 118.67569 
L 135.417273 135.911026 
L 135.924545 143.743395 
L 136.431818 136.865777 
L 137.446364 103.383564 
L 137.953636 92.014098 
L 138.968182 76.707683 
L 139.982727 65.54241 
L 140.49 61.869682 
L 140.997273 59.81444 
L 141.504545 58.871265 
L 142.011818 58.792668 
L 142.519091 60.563891 
L 143.026364 64.521021 
L 143.533636 72.140844 
L 144.040909 83.094601 
L 144.548182 97.245367 
L 145.055455 114.966688 
L 146.577273 182.718979 
L 147.084545 178.247402 
L 147.591818 163.075021 
L 148.606364 124.553849 
L 149.113636 108.74237 
L 149.620909 97.213518 
L 150.128182 88.824494 
L 151.142727 76.048096 
L 151.65 71.709221 
L 152.157273 68.43977 
L 152.664545 67.362302 
L 153.171818 68.812486 
L 153.679091 73.872033 
L 154.186364 81.901359 
L 154.693636 93.338696 
L 155.200909 110.089863 
L 155.708182 132.325159 
L 156.722727 183.373365 
L 157.23 184.678536 
L 157.737273 161.994663 
L 158.751818 107.019625 
L 159.259091 91.495125 
L 159.766364 81.167332 
L 160.273636 73.296802 
L 160.780909 67.581172 
L 161.288182 63.248223 
L 161.795455 59.883218 
L 162.302727 58.127004 
L 162.81 57.435156 
L 163.317273 58.4056 
L 163.824545 61.72651 
L 164.331818 67.379894 
L 164.839091 77.216438 
L 165.346364 93.252019 
L 165.853636 116.974634 
L 167.375455 203.569357 
L 167.882727 206.740383 
L 169.911818 120.997625 
L 170.926364 97.571257 
L 172.448182 74.423948 
L 172.955455 69.857077 
L 173.462727 68.234491 
L 173.97 69.181611 
L 174.477273 73.515744 
L 174.984545 80.114338 
L 175.491818 89.906597 
L 175.999091 102.456551 
L 177.520909 157.79789 
L 178.028182 158.289273 
L 179.55 115.974422 
L 180.057273 107.394411 
L 181.071818 96.116822 
L 182.593636 82.659594 
L 183.100909 78.344926 
L 183.608182 74.999162 
L 184.115455 72.739864 
L 184.622727 72.871222 
L 185.13 76.837282 
L 185.637273 84.311586 
L 186.144545 97.154319 
L 186.651818 118.542696 
L 188.173636 216.077626 
L 188.680909 227.177521 
L 189.188182 218.372648 
L 190.202727 163.017044 
L 190.71 136.172379 
L 191.217273 117.113884 
L 192.231818 92.859604 
L 193.246364 75.219385 
L 193.753636 70.019787 
L 194.260909 67.174192 
L 194.768182 67.346146 
L 195.275455 70.449189 
L 195.782727 76.910781 
L 196.29 86.824572 
L 196.797273 101.96971 
L 197.304545 124.179996 
L 198.319091 175.71134 
L 198.826364 184.873115 
L 199.333636 179.198085 
L 199.840909 166.756481 
L 200.855455 135.003564 
L 201.362727 123.33677 
L 202.377273 105.777298 
L 203.391818 92.250248 
L 203.899091 86.514619 
L 204.406364 82.618771 
L 204.913636 80.671967 
L 205.420909 80.585114 
L 205.928182 83.858665 
L 206.435455 92.358201 
L 206.942727 107.624101 
L 207.45 130.395805 
L 208.464545 196.39436 
L 208.971818 217.757319 
L 209.479091 214.60839 
L 209.986364 190.045954 
L 211.000909 131.010846 
L 211.508182 114.656393 
L 212.522727 93.610664 
L 214.044545 69.695915 
L 214.551818 64.468498 
L 215.059091 62.145311 
L 215.566364 62.4273 
L 216.073636 65.411896 
L 216.580909 70.402472 
L 217.088182 80.08026 
L 217.595455 95.559918 
L 218.61 137.0485 
L 219.117273 149.309373 
L 219.624545 142.210426 
L 220.639091 106.750886 
L 221.146364 94.360898 
L 221.653636 85.151251 
L 223.682727 59.513906 
L 224.19 53.811985 
L 225.204545 47.157814 
L 225.711818 45.691127 
L 226.219091 47.417151 
L 226.726364 52.666514 
L 227.233636 61.110845 
L 227.740909 75.831511 
L 228.248182 98.250427 
L 229.262727 154.393983 
L 229.77 166.457446 
L 230.277273 161.382824 
L 231.799091 120.596373 
L 233.320909 93.644895 
L 234.842727 69.911627 
L 235.857273 59.844066 
L 236.364545 56.737333 
L 236.871818 57.605441 
L 237.379091 61.004795 
L 237.886364 69.282683 
L 238.393636 84.190708 
L 238.900909 106.742174 
L 239.408182 134.706302 
L 239.915455 155.423241 
L 240.422727 163.185161 
L 240.93 159.909881 
L 243.973636 97.780278 
L 244.988182 82.389155 
L 245.495455 76.722381 
L 246.002727 72.753005 
L 246.51 72.18536 
L 247.017273 74.48925 
L 247.524545 80.815001 
L 248.031818 91.707546 
L 248.539091 107.959748 
L 249.046364 131.407322 
L 250.060909 193.692984 
L 250.568182 210.299816 
L 251.075455 205.547347 
L 252.09 163.502513 
L 253.104545 122.32163 
L 253.611818 108.015416 
L 254.626364 89.120174 
L 255.133636 80.547554 
L 255.640909 74.116125 
L 256.655455 65.343248 
L 257.162727 64.120622 
L 257.67 66.305891 
L 258.177273 69.98636 
L 258.684545 77.982888 
L 259.191818 93.264526 
L 260.206364 136.376269 
L 260.713636 146.71974 
L 261.220909 139.67058 
L 262.235455 106.038989 
L 262.742727 95.152208 
L 263.25 87.289238 
L 264.264545 76.569513 
L 265.786364 63.210673 
L 266.293636 59.974407 
L 266.800909 57.537758 
L 267.308182 57.070356 
L 267.815455 57.473392 
L 268.322727 60.159509 
L 268.83 66.990016 
L 269.337273 78.880402 
L 269.844545 99.160317 
L 270.859091 160.58608 
L 271.366364 180.768414 
L 271.873636 187.288919 
L 272.380909 181.436848 
L 273.395455 149.084664 
L 274.41 116.128406 
L 275.424545 92.769129 
L 276.439091 76.309927 
L 276.946364 70.652172 
L 277.960909 64.688262 
L 278.468182 66.593091 
L 278.975455 73.093137 
L 279.482727 83.345354 
L 279.99 100.365071 
L 281.004545 144.942618 
L 281.511818 156.856317 
L 282.019091 153.744151 
L 284.048182 108.576386 
L 286.077273 78.135834 
L 286.584545 73.138569 
L 287.091818 69.510157 
L 287.599091 67.577329 
L 288.106364 67.473929 
L 288.613636 70.634805 
L 289.120909 78.470473 
L 289.628182 91.825079 
L 290.135455 112.519832 
L 290.642727 142.401987 
L 291.657273 213.104036 
L 292.164545 230.345932 
L 292.671818 227.940702 
L 293.179091 206.691955 
L 294.193636 143.453704 
L 294.700909 123.301076 
L 295.208182 109.450009 
L 296.222727 90.545148 
L 297.237273 76.785466 
L 297.744545 72.473722 
L 298.251818 71.64992 
L 298.759091 72.801502 
L 299.266364 76.334094 
L 299.773636 86.031385 
L 300.280909 99.861226 
L 301.802727 160.076766 
L 302.31 158.109283 
L 302.817273 140.552914 
L 303.324545 114.000955 
L 303.831818 94.230689 
L 304.339091 80.350981 
L 305.353636 62.093473 
L 305.860909 55.777341 
L 306.875455 48.052627 
L 307.382727 45.618309 
L 307.89 44.443636 
L 308.397273 45.08977 
L 308.904545 47.086899 
L 309.411818 51.435434 
L 309.919091 60.133413 
L 310.426364 73.975792 
L 310.933636 94.284917 
L 312.455455 176.962649 
L 312.962727 180.31511 
L 313.47 168.950617 
L 314.484545 133.292786 
L 315.499091 109.472742 
L 316.513636 90.491862 
L 317.528182 79.573996 
L 318.035455 76.319923 
L 318.542727 75.368572 
L 319.05 76.548809 
L 319.557273 80.108964 
L 320.064545 86.057747 
L 320.571818 94.944854 
L 321.079091 108.772986 
L 321.586364 130.106327 
L 322.600909 181.472859 
L 323.108182 187.666828 
L 323.615455 172.450881 
L 324.63 122.844147 
L 325.137273 104.88741 
L 325.644545 92.73197 
L 326.151818 85.227673 
L 327.166364 74.732296 
L 327.673636 70.918985 
L 328.180909 68.420279 
L 328.688182 67.638149 
L 329.195455 68.609996 
L 329.702727 71.858759 
L 330.21 77.923123 
L 330.717273 87.963137 
L 331.224545 103.822066 
L 331.731818 127.84713 
L 333.253636 229.103696 
L 333.760909 242.116364 
L 334.268182 236.796806 
L 334.775455 218.960974 
L 336.297273 139.932847 
L 336.804545 121.70314 
L 337.311818 109.213121 
L 337.819091 99.932805 
L 338.833636 87.118023 
L 339.340909 83.612353 
L 339.848182 83.494687 
L 340.355455 86.409826 
L 340.862727 92.631471 
L 341.37 104.169792 
L 341.877273 121.985491 
L 342.384545 147.263215 
L 343.399091 203.081628 
L 343.906364 209.79406 
L 344.413636 193.189942 
L 345.428182 130.939681 
L 345.935455 109.581122 
L 346.442727 96.358879 
L 346.95 86.758049 
L 347.457273 79.745015 
L 347.964545 74.647892 
L 348.471818 71.138103 
L 348.979091 69.156485 
L 349.486364 68.882714 
L 349.993636 70.94252 
L 350.500909 74.40797 
L 351.008182 80.497791 
L 351.515455 89.826831 
L 352.022727 105.433347 
L 352.53 128.785306 
L 353.544545 191.355224 
L 354.051818 209.159073 
L 354.559091 204.674173 
L 355.066364 183.954555 
L 356.080909 134.090926 
L 357.095455 104.324699 
L 357.602727 93.769061 
L 358.617273 78.638004 
L 359.124545 72.793136 
L 359.631818 69.054977 
L 360.139091 69.153248 
L 360.646364 71.064678 
L 361.153636 74.193151 
L 361.660909 79.77528 
L 362.168182 88.165046 
L 362.675455 100.987584 
L 363.69 137.978509 
L 364.197273 141.834123 
L 364.704545 128.993589 
L 365.719091 97.687854 
L 366.226364 87.467546 
L 367.240909 77.90476 
L 368.255455 69.503228 
L 368.762727 65.56468 
L 369.777273 55.836152 
L 370.284545 53.007712 
L 370.791818 51.836673 
L 371.299091 54.223387 
L 371.806364 59.388485 
L 372.313636 67.945392 
L 372.820909 83.336838 
L 373.328182 106.772906 
L 373.328182 106.772906 
" style="fill:none;stroke:#808080;stroke-linecap:square;stroke-width:1.5;"/>
   </g>
   <g id="line2d_16">
    <defs>
     <path d="M 0 1.5 
C 0.397805 1.5 0.77937 1.341951 1.06066 1.06066 
C 1.341951 0.77937 1.5 0.397805 1.5 0 
C 1.5 -0.397805 1.341951 -0.77937 1.06066 -1.06066 
C 0.77937 -1.341951 0.397805 -1.5 0 -1.5 
C -0.397805 -1.5 -0.77937 -1.341951 -1.06066 -1.06066 
C -1.341951 -0.77937 -1.5 -0.397805 -1.5 0 
C -1.5 0.397805 -1.341951 0.77937 -1.06066 1.06066 
C -0.77937 1.341951 -0.397805 1.5 0 1.5 
z
" id="m47e03fbcff" style="stroke:#000000;"/>
    </defs>
    <g clip-path="url(#p5b3a14be28)">
     <use style="stroke:#000000;" x="120.199091" xlink:href="#m47e03fbcff" y="51.293351"/>
     <use style="stroke:#000000;" x="120.706364" xlink:href="#m47e03fbcff" y="49.776292"/>
     <use style="stroke:#000000;" x="121.213636" xlink:href="#m47e03fbcff" y="50.273877"/>
     <use style="stroke:#000000;" x="121.720909" xlink:href="#m47e03fbcff" y="53.53346"/>
     <use style="stroke:#000000;" x="130.344545" xlink:href="#m47e03fbcff" y="51.553193"/>
     <use style="stroke:#000000;" x="130.851818" xlink:href="#m47e03fbcff" y="47.980293"/>
     <use style="stroke:#000000;" x="131.359091" xlink:href="#m47e03fbcff" y="48.090933"/>
     <use style="stroke:#000000;" x="131.866364" xlink:href="#m47e03fbcff" y="50.578003"/>
     <use style="stroke:#000000;" x="224.19" xlink:href="#m47e03fbcff" y="53.811985"/>
     <use style="stroke:#000000;" x="224.697273" xlink:href="#m47e03fbcff" y="50.206141"/>
     <use style="stroke:#000000;" x="225.204545" xlink:href="#m47e03fbcff" y="47.157814"/>
     <use style="stroke:#000000;" x="225.711818" xlink:href="#m47e03fbcff" y="45.691127"/>
     <use style="stroke:#000000;" x="226.219091" xlink:href="#m47e03fbcff" y="47.417151"/>
     <use style="stroke:#000000;" x="226.726364" xlink:href="#m47e03fbcff" y="52.666514"/>
     <use style="stroke:#000000;" x="306.368182" xlink:href="#m47e03fbcff" y="51.56258"/>
     <use style="stroke:#000000;" x="306.875455" xlink:href="#m47e03fbcff" y="48.052627"/>
     <use style="stroke:#000000;" x="307.382727" xlink:href="#m47e03fbcff" y="45.618309"/>
     <use style="stroke:#000000;" x="307.89" xlink:href="#m47e03fbcff" y="44.443636"/>
     <use style="stroke:#000000;" x="308.397273" xlink:href="#m47e03fbcff" y="45.08977"/>
     <use style="stroke:#000000;" x="308.904545" xlink:href="#m47e03fbcff" y="47.086899"/>
     <use style="stroke:#000000;" x="309.411818" xlink:href="#m47e03fbcff" y="51.435434"/>
     <use style="stroke:#000000;" x="370.284545" xlink:href="#m47e03fbcff" y="53.007712"/>
     <use style="stroke:#000000;" x="370.791818" xlink:href="#m47e03fbcff" y="51.836673"/>
    </g>
   </g>
   <g id="patch_3">
    <path d="M 54 252 
L 54 34.56 
" style="fill:none;stroke:#000000;stroke-linecap:square;stroke-linejoin:miter;stroke-width:0.8;"/>
   </g>
   <g id="patch_4">
    <path d="M 388.8 252 
L 388.8 34.56 
" style="fill:none;stroke:#000000;stroke-linecap:square;stroke-linejoin:miter;stroke-width:0.8;"/>
   </g>
   <g id="patch_5">
    <path d="M 54 252 
L 388.8 252 
" style="fill:none;stroke:#000000;stroke-linecap:square;stroke-linejoin:miter;stroke-width:0.8;"/>
   </g>
   <g id="patch_6">
    <path d="M 54 34.56 
L 388.8 34.56 
" style="fill:none;stroke:#000000;stroke-linecap:square;stroke-linejoin:miter;stroke-width:0.8;"/>
   </g>
   <g id="text_16">
    <!-- Finger-target phase difference -->
    <defs>
     <path d="M 9.8125 72.90625 
L 51.703125 72.90625 
L 51.703125 64.59375 
L 19.671875 64.59375 
L 19.671875 43.109375 
L 48.578125 43.109375 
L 48.578125 34.8125 
L 19.671875 34.8125 
L 19.671875 0 
L 9.8125 0 
z
" id="DejaVuSans-70"/>
     <path d="M 45.40625 27.984375 
Q 45.40625 37.75 41.375 43.109375 
Q 37.359375 48.484375 30.078125 48.484375 
Q 22.859375 48.484375 18.828125 43.109375 
Q 14.796875 37.75 14.796875 27.984375 
Q 14.796875 18.265625 18.828125 12.890625 
Q 22.859375 7.515625 30.078125 7.515625 
Q 37.359375 7.515625 41.375 12.890625 
Q 45.40625 18.265625 45.40625 27.984375 
z
M 54.390625 6.78125 
Q 54.390625 -7.171875 48.1875 -13.984375 
Q 42 -20.796875 29.203125 -20.796875 
Q 24.46875 -20.796875 20.265625 -20.09375 
Q 16.0625 -19.390625 12.109375 -17.921875 
L 12.109375 -9.1875 
Q 16.0625 -11.328125 19.921875 -12.34375 
Q 23.78125 -13.375 27.78125 -13.375 
Q 36.625 -13.375 41.015625 -8.765625 
Q 45.40625 -4.15625 45.40625 5.171875 
L 45.40625 9.625 
Q 42.625 4.78125 38.28125 2.390625 
Q 33.9375 0 27.875 0 
Q 17.828125 0 11.671875 7.65625 
Q 5.515625 15.328125 5.515625 27.984375 
Q 5.515625 40.671875 11.671875 48.328125 
Q 17.828125 56 27.875 56 
Q 33.9375 56 38.28125 53.609375 
Q 42.625 51.21875 45.40625 46.390625 
L 45.40625 54.6875 
L 54.390625 54.6875 
z
" id="DejaVuSans-103"/>
     <path d="M 4.890625 31.390625 
L 31.203125 31.390625 
L 31.203125 23.390625 
L 4.890625 23.390625 
z
" id="DejaVuSans-45"/>
    </defs>
    <g transform="translate(129.75 28.56)scale(0.12 -0.12)">
     <use xlink:href="#DejaVuSans-70"/>
     <use x="57.410156" xlink:href="#DejaVuSans-105"/>
     <use x="85.193359" xlink:href="#DejaVuSans-110"/>
     <use x="148.572266" xlink:href="#DejaVuSans-103"/>
     <use x="212.048828" xlink:href="#DejaVuSans-101"/>
     <use x="273.572266" xlink:href="#DejaVuSans-114"/>
     <use x="314.591797" xlink:href="#DejaVuSans-45"/>
     <use x="350.675781" xlink:href="#DejaVuSans-116"/>
     <use x="389.884766" xlink:href="#DejaVuSans-97"/>
     <use x="451.164062" xlink:href="#DejaVuSans-114"/>
     <use x="492.261719" xlink:href="#DejaVuSans-103"/>
     <use x="555.738281" xlink:href="#DejaVuSans-101"/>
     <use x="617.261719" xlink:href="#DejaVuSans-116"/>
     <use x="656.470703" xlink:href="#DejaVuSans-32"/>
     <use x="688.257812" xlink:href="#DejaVuSans-112"/>
     <use x="751.734375" xlink:href="#DejaVuSans-104"/>
     <use x="815.113281" xlink:href="#DejaVuSans-97"/>
     <use x="876.392578" xlink:href="#DejaVuSans-115"/>
     <use x="928.492188" xlink:href="#DejaVuSans-101"/>
     <use x="990.015625" xlink:href="#DejaVuSans-32"/>
     <use x="1021.802734" xlink:href="#DejaVuSans-100"/>
     <use x="1085.279297" xlink:href="#DejaVuSans-105"/>
     <use x="1113.0625" xlink:href="#DejaVuSans-102"/>
     <use x="1148.267578" xlink:href="#DejaVuSans-102"/>
     <use x="1183.472656" xlink:href="#DejaVuSans-101"/>
     <use x="1244.996094" xlink:href="#DejaVuSans-114"/>
     <use x="1286.078125" xlink:href="#DejaVuSans-101"/>
     <use x="1347.601562" xlink:href="#DejaVuSans-110"/>
     <use x="1410.980469" xlink:href="#DejaVuSans-99"/>
     <use x="1465.960938" xlink:href="#DejaVuSans-101"/>
    </g>
   </g>
   <g id="legend_1">
    <g id="patch_7">
     <path d="M 61 247 
L 148.165625 247 
Q 150.165625 247 150.165625 245 
L 150.165625 216.64375 
Q 150.165625 214.64375 148.165625 214.64375 
L 61 214.64375 
Q 59 214.64375 59 216.64375 
L 59 245 
Q 59 247 61 247 
z
" style="fill:#ffffff;opacity:0.8;stroke:#cccccc;stroke-linejoin:miter;"/>
    </g>
    <g id="line2d_17">
     <path d="M 63 222.742188 
L 83 222.742188 
" style="fill:none;stroke:#808080;stroke-linecap:square;stroke-width:1.5;"/>
    </g>
    <g id="line2d_18"/>
    <g id="text_17">
     <!-- target lead -->
     <defs>
      <path d="M 9.421875 75.984375 
L 18.40625 75.984375 
L 18.40625 0 
L 9.421875 0 
z
" id="DejaVuSans-108"/>
     </defs>
     <g transform="translate(91 226.242188)scale(0.1 -0.1)">
      <use xlink:href="#DejaVuSans-116"/>
      <use x="39.208984" xlink:href="#DejaVuSans-97"/>
      <use x="100.488281" xlink:href="#DejaVuSans-114"/>
      <use x="141.585938" xlink:href="#DejaVuSans-103"/>
      <use x="205.0625" xlink:href="#DejaVuSans-101"/>
      <use x="266.585938" xlink:href="#DejaVuSans-116"/>
      <use x="305.794922" xlink:href="#DejaVuSans-32"/>
      <use x="337.582031" xlink:href="#DejaVuSans-108"/>
      <use x="365.365234" xlink:href="#DejaVuSans-101"/>
      <use x="426.888672" xlink:href="#DejaVuSans-97"/>
      <use x="488.167969" xlink:href="#DejaVuSans-100"/>
     </g>
    </g>
    <g id="line2d_19"/>
    <g id="line2d_20">
     <g>
      <use style="stroke:#000000;" x="73" xlink:href="#m47e03fbcff" y="237.420312"/>
     </g>
    </g>
    <g id="text_18">
     <!-- finger lead -->
     <g transform="translate(91 240.920312)scale(0.1 -0.1)">
      <use xlink:href="#DejaVuSans-102"/>
      <use x="35.205078" xlink:href="#DejaVuSans-105"/>
      <use x="62.988281" xlink:href="#DejaVuSans-110"/>
      <use x="126.367188" xlink:href="#DejaVuSans-103"/>
      <use x="189.84375" xlink:href="#DejaVuSans-101"/>
      <use x="251.367188" xlink:href="#DejaVuSans-114"/>
      <use x="292.480469" xlink:href="#DejaVuSans-32"/>
      <use x="324.267578" xlink:href="#DejaVuSans-108"/>
      <use x="352.050781" xlink:href="#DejaVuSans-101"/>
      <use x="413.574219" xlink:href="#DejaVuSans-97"/>
      <use x="474.853516" xlink:href="#DejaVuSans-100"/>
     </g>
    </g>
   </g>
  </g>
 </g>
 <defs>
  <clipPath id="p5b3a14be28">
   <rect height="217.44" width="334.8" x="54" y="34.56"/>
  </clipPath>
 </defs>
</svg>
